<svg width="18" height="19" viewBox="0 0 18 19" fill="none" xmlns="http://www.w3.org/2000/svg">
<path fill-rule="evenodd" clip-rule="evenodd" d="M4.4409 5.77248C3.42405 6.0104 2.64023 6.90842 2.55028 8.02702L2.00859 14.7639C1.89016 16.2368 3.01155 17.5 4.43748 17.5H13.0922C14.5181 17.5 15.6395 16.2368 15.5211 14.7639L14.9796 8.02708C14.8877 6.88335 14.0703 5.97021 13.0202 5.75746C12.8066 4.97867 12.4998 4.26728 12.1153 3.65735C11.3303 2.41199 10.1519 1.5 8.73259 1.5C7.31331 1.5 6.13493 2.41199 5.3499 3.65735C4.96295 4.27119 4.65469 4.98781 4.4409 5.77248ZM6.16778 5.71053H11.2974C11.1468 5.28936 10.9632 4.90881 10.755 4.57858C10.1568 3.62951 9.42415 3.18421 8.73259 3.18421C8.04104 3.18421 7.30842 3.62951 6.71016 4.57858C6.50199 4.90881 6.31841 5.28936 6.16778 5.71053ZM4.16955 8.1669C4.20464 7.73045 4.55664 7.39474 4.97918 7.39474H12.5507C12.9733 7.39474 13.3253 7.73046 13.3603 8.16692L13.9019 14.9038C13.9413 15.3947 13.5675 15.8158 13.0922 15.8158H4.43748C3.96217 15.8158 3.58837 15.3947 3.62785 14.9037L4.16955 8.1669Z" fill="#EC8D59"/>
</svg>
