<svg width="130" height="55" viewBox="0 0 130 55" fill="none" xmlns="http://www.w3.org/2000/svg">
<path d="M63.968 26V9.344H66.224V26H63.968ZM65.504 26V23.936H74.432V26H65.504ZM76.1302 26V14.6H78.2902V26H76.1302ZM77.2102 12.32C76.8102 12.32 76.4822 12.192 76.2262 11.936C75.9702 11.664 75.8422 11.328 75.8422 10.928C75.8422 10.544 75.9702 10.224 76.2262 9.968C76.4822 9.696 76.8102 9.56 77.2102 9.56C77.6102 9.56 77.9382 9.696 78.1942 9.968C78.4502 10.224 78.5782 10.544 78.5782 10.928C78.5782 11.328 78.4502 11.664 78.1942 11.936C77.9382 12.192 77.6102 12.32 77.2102 12.32ZM88.8174 26V19.352C88.8174 18.488 88.5454 17.776 88.0014 17.216C87.4574 16.656 86.7534 16.376 85.8894 16.376C85.3134 16.376 84.8014 16.504 84.3534 16.76C83.9054 17.016 83.5534 17.368 83.2974 17.816C83.0414 18.264 82.9134 18.776 82.9134 19.352L82.0254 18.848C82.0254 17.984 82.2174 17.216 82.6014 16.544C82.9854 15.872 83.5214 15.344 84.2094 14.96C84.8974 14.56 85.6734 14.36 86.5374 14.36C87.4014 14.36 88.1614 14.576 88.8174 15.008C89.4894 15.44 90.0174 16.008 90.4014 16.712C90.7854 17.4 90.9774 18.136 90.9774 18.92V26H88.8174ZM80.7534 26V14.6H82.9134V26H80.7534ZM98.0058 26.24C96.9498 26.24 96.0058 25.984 95.1738 25.472C94.3418 24.944 93.6778 24.232 93.1818 23.336C92.7018 22.44 92.4618 21.432 92.4618 20.312C92.4618 19.192 92.7018 18.184 93.1818 17.288C93.6778 16.392 94.3418 15.68 95.1738 15.152C96.0058 14.624 96.9498 14.36 98.0058 14.36C98.8538 14.36 99.6218 14.544 100.31 14.912C100.998 15.264 101.55 15.76 101.966 16.4C102.398 17.024 102.638 17.752 102.686 18.584V22.016C102.638 22.832 102.406 23.56 101.99 24.2C101.574 24.84 101.022 25.344 100.334 25.712C99.6458 26.064 98.8698 26.24 98.0058 26.24ZM98.3658 24.2C99.0858 24.2 99.7098 24.032 100.238 23.696C100.782 23.36 101.206 22.904 101.51 22.328C101.814 21.736 101.966 21.064 101.966 20.312C101.966 19.528 101.806 18.848 101.486 18.272C101.182 17.696 100.758 17.24 100.214 16.904C99.6858 16.568 99.0618 16.4 98.3418 16.4C97.6218 16.4 96.9898 16.568 96.4458 16.904C95.9018 17.24 95.4698 17.704 95.1498 18.296C94.8458 18.872 94.6938 19.536 94.6938 20.288C94.6938 21.056 94.8458 21.736 95.1498 22.328C95.4698 22.904 95.9018 23.36 96.4458 23.696C97.0058 24.032 97.6458 24.2 98.3658 24.2ZM104.006 26H101.822V22.928L102.23 20.144L101.822 17.384V8.864H104.006V26ZM111.711 26.24C110.575 26.24 109.551 25.984 108.639 25.472C107.727 24.944 107.007 24.232 106.479 23.336C105.951 22.44 105.687 21.424 105.687 20.288C105.687 19.168 105.943 18.16 106.455 17.264C106.983 16.368 107.687 15.664 108.567 15.152C109.463 14.624 110.463 14.36 111.567 14.36C112.623 14.36 113.551 14.6 114.351 15.08C115.167 15.56 115.799 16.224 116.247 17.072C116.711 17.92 116.943 18.88 116.943 19.952C116.943 20.112 116.935 20.288 116.919 20.48C116.903 20.656 116.871 20.864 116.823 21.104L107.199 21.104V19.304L115.671 19.304L114.879 20C114.879 19.232 114.743 18.584 114.471 18.056C114.199 17.512 113.815 17.096 113.319 16.808C112.823 16.504 112.223 16.352 111.519 16.352C110.783 16.352 110.135 16.512 109.575 16.832C109.015 17.152 108.583 17.6 108.279 18.176C107.975 18.752 107.823 19.432 107.823 20.216C107.823 21.016 107.983 21.72 108.303 22.328C108.623 22.92 109.079 23.384 109.671 23.72C110.263 24.04 110.943 24.2 111.711 24.2C112.351 24.2 112.935 24.088 113.463 23.864C114.007 23.64 114.471 23.304 114.855 22.856L116.247 24.272C115.703 24.912 115.031 25.4 114.231 25.736C113.447 26.072 112.607 26.24 111.711 26.24Z" fill="#D05B19"/>
<path d="M63.968 47V30.344H66.224V47H63.968ZM74.72 47V30.344H76.976V47H74.72ZM65.504 39.416V37.352H75.272V39.416H65.504ZM85.0173 47.24C83.8973 47.24 82.8893 46.976 81.9933 46.448C81.0973 45.92 80.3853 45.208 79.8573 44.312C79.3293 43.4 79.0653 42.384 79.0653 41.264C79.0653 40.16 79.3293 39.168 79.8573 38.288C80.3853 37.392 81.0973 36.68 81.9933 36.152C82.8893 35.624 83.8973 35.36 85.0173 35.36C86.1213 35.36 87.1213 35.624 88.0173 36.152C88.9293 36.664 89.6493 37.368 90.1773 38.264C90.7053 39.16 90.9693 40.16 90.9693 41.264C90.9693 42.384 90.7053 43.4 90.1773 44.312C89.6493 45.208 88.9293 45.92 88.0173 46.448C87.1213 46.976 86.1213 47.24 85.0173 47.24ZM85.0173 45.152C85.7373 45.152 86.3773 44.984 86.9373 44.648C87.4973 44.312 87.9373 43.856 88.2573 43.28C88.5773 42.688 88.7373 42.016 88.7373 41.264C88.7373 40.528 88.5693 39.872 88.2333 39.296C87.9133 38.72 87.4733 38.272 86.9133 37.952C86.3693 37.616 85.7373 37.448 85.0173 37.448C84.2973 37.448 83.6573 37.616 83.0973 37.952C82.5373 38.272 82.0973 38.72 81.7773 39.296C81.4573 39.872 81.2973 40.528 81.2973 41.264C81.2973 42.016 81.4573 42.688 81.7773 43.28C82.0973 43.856 82.5373 44.312 83.0973 44.648C83.6573 44.984 84.2973 45.152 85.0173 45.152ZM98.6831 47.24C97.8191 47.24 97.0351 47.064 96.3311 46.712C95.6431 46.344 95.0911 45.84 94.6751 45.2C94.2591 44.56 94.0271 43.832 93.9791 43.016V39.584C94.0271 38.752 94.2591 38.024 94.6751 37.4C95.1071 36.76 95.6671 36.264 96.3551 35.912C97.0591 35.544 97.8351 35.36 98.6831 35.36C99.7231 35.36 100.659 35.624 101.491 36.152C102.339 36.68 103.003 37.392 103.483 38.288C103.963 39.184 104.203 40.192 104.203 41.312C104.203 42.432 103.963 43.44 103.483 44.336C103.003 45.232 102.339 45.944 101.491 46.472C100.659 46.984 99.7231 47.24 98.6831 47.24ZM92.6831 47V29.864L94.8431 29.864V38.384L94.4351 41.144L94.8431 43.928V47H92.6831ZM98.3231 45.2C99.0431 45.2 99.6751 45.032 100.219 44.696C100.763 44.36 101.195 43.904 101.515 43.328C101.835 42.736 101.995 42.056 101.995 41.288C101.995 40.536 101.835 39.864 101.515 39.272C101.195 38.68 100.763 38.224 100.219 37.904C99.6751 37.568 99.0511 37.4 98.3471 37.4C97.6271 37.4 96.9951 37.568 96.4511 37.904C95.9071 38.224 95.4831 38.68 95.1791 39.272C94.8751 39.864 94.7231 40.544 94.7231 41.312C94.7231 42.064 94.8671 42.736 95.1551 43.328C95.4591 43.904 95.8831 44.36 96.4271 44.696C96.9871 45.032 97.6191 45.2 98.3231 45.2ZM111.932 47.24C111.068 47.24 110.284 47.064 109.58 46.712C108.892 46.344 108.34 45.84 107.924 45.2C107.508 44.56 107.276 43.832 107.228 43.016V39.584C107.276 38.752 107.508 38.024 107.924 37.4C108.356 36.76 108.916 36.264 109.604 35.912C110.308 35.544 111.084 35.36 111.932 35.36C112.972 35.36 113.908 35.624 114.74 36.152C115.588 36.68 116.252 37.392 116.732 38.288C117.212 39.184 117.452 40.192 117.452 41.312C117.452 42.432 117.212 43.44 116.732 44.336C116.252 45.232 115.588 45.944 114.74 46.472C113.908 46.984 112.972 47.24 111.932 47.24ZM105.932 47V29.864H108.092V38.384L107.684 41.144L108.092 43.928V47H105.932ZM111.572 45.2C112.292 45.2 112.924 45.032 113.468 44.696C114.012 44.36 114.444 43.904 114.764 43.328C115.084 42.736 115.244 42.056 115.244 41.288C115.244 40.536 115.084 39.864 114.764 39.272C114.444 38.68 114.012 38.224 113.468 37.904C112.924 37.568 112.3 37.4 111.596 37.4C110.876 37.4 110.244 37.568 109.7 37.904C109.156 38.224 108.732 38.68 108.428 39.272C108.124 39.864 107.972 40.544 107.972 41.312C107.972 42.064 108.116 42.736 108.404 43.328C108.708 43.904 109.132 44.36 109.676 44.696C110.236 45.032 110.868 45.2 111.572 45.2ZM122.479 47.096L117.535 35.6H119.935L123.607 44.6H122.839L126.703 35.6H129.103L123.775 47.096H122.479ZM119.215 51.776L122.575 44.888L123.775 47.096L121.615 51.776H119.215Z" fill="#D05B19"/>
<path d="M22.0951 1.29822L25.3173 4.51115L26.6193 3.21293L23.3971 0L22.0951 1.29822Z" fill="#D05B19"/>
<path d="M41.4283 5.96687L38.2061 9.17979L39.5081 10.478L42.7303 7.26508L41.4283 5.96687Z" fill="#D05B19"/>
<path d="M3.2222 29.3753L0 32.5883L1.30197 33.8865L4.52417 30.6736L3.2222 29.3753Z" fill="#D05B19"/>
<path d="M49.2536 41.2303L46.0314 38.0174L47.3334 36.7192L50.5556 39.9321L49.2536 41.2303Z" fill="#D05B19"/>
<path d="M31.3014 51.7871L34.5236 55L35.8255 53.7018L32.6033 50.4889L31.3014 51.7871Z" fill="#D05B19"/>
<path d="M10.5872 17.3629L7.36503 14.1499L8.667 12.8517L11.8892 16.0646L10.5872 17.3629Z" fill="#D05B19"/>
<path d="M52.4758 23.4085L55.698 20.1955L57 21.4938L53.7778 24.7067L52.4758 23.4085Z" fill="#D05B19"/>
<path d="M17.4919 43.604L14.2697 46.8169L15.5717 48.1152L18.7939 44.9022L17.4919 43.604Z" fill="#D05B19"/>
<path d="M23.0157 23.8675L32.222 14.6877L33.524 15.9859L24.3177 25.1657L23.0157 23.8675Z" fill="#D05B19"/>
<path d="M16.5713 23.3297L25.7776 32.5095L27.0796 31.2113L17.8733 22.0315L16.5713 23.3297Z" fill="#D05B19"/>
<path d="M25.7776 47.1972L16.5713 38.0174L17.8733 36.7192L27.0796 45.899L25.7776 47.1972Z" fill="#D05B19"/>
<path d="M16.5713 8.64205L25.7776 17.8218L27.0796 16.5236L17.8733 7.34383L16.5713 8.64205Z" fill="#D05B19"/>
<path d="M23.0157 38.5551L32.222 29.3753L33.524 30.6736L24.3177 39.8533L23.0157 38.5551Z" fill="#D05B19"/>
<path d="M32.222 44.063L23.0157 53.2428L24.3177 54.541L33.524 45.3612L32.222 44.063Z" fill="#D05B19"/>
<path d="M23.0157 9.17979L32.222 0L33.524 1.29822L24.3177 10.478L23.0157 9.17979Z" fill="#D05B19"/>
<path d="M46.9521 14.6877L37.7458 23.8675L39.0477 25.1657L48.254 15.9859L46.9521 14.6877Z" fill="#D05B19"/>
<path d="M40.5077 32.5095L31.3014 23.3297L32.6033 22.0315L41.8096 31.2113L40.5077 32.5095Z" fill="#D05B19"/>
<path d="M31.3014 38.0174L40.5077 47.1972L41.8096 45.899L32.6033 36.7192L31.3014 38.0174Z" fill="#D05B19"/>
<path d="M40.5077 17.8218L31.3014 8.64205L32.6033 7.34383L41.8096 16.5236L40.5077 17.8218Z" fill="#D05B19"/>
<path d="M46.0314 23.3297L55.2377 32.5095L56.5397 31.2113L47.3334 22.0315L46.0314 23.3297Z" fill="#D05B19"/>
<path d="M37.7458 38.5551L46.9521 29.3753L48.254 30.6736L39.0477 39.8533L37.7458 38.5551Z" fill="#D05B19"/>
<path d="M17.4919 14.6877L8.28566 23.8675L9.58762 25.1657L18.7939 15.9859L17.4919 14.6877Z" fill="#D05B19"/>
<path d="M11.0475 32.5095L1.84126 23.3297L3.14322 22.0315L12.3495 31.2113L11.0475 32.5095Z" fill="#D05B19"/>
<path d="M17.4919 29.3753L8.28566 38.5551L9.58762 39.8533L18.7939 30.6736L17.4919 29.3753Z" fill="#D05B19"/>
</svg>
