<svg width="18" height="19" viewBox="0 0 18 19" fill="none" xmlns="http://www.w3.org/2000/svg">
<path fill-rule="evenodd" clip-rule="evenodd" d="M11.1279 1.5C8.04661 1.5 5.54872 3.99789 5.54872 7.07919C5.54872 8.33239 5.9619 9.48908 6.65947 10.4205L1 16.0799L2.12717 17.2071L7.78664 11.5476C8.71803 12.2452 9.87472 12.6584 11.1279 12.6584C14.2092 12.6584 16.7071 10.1605 16.7071 7.07919C16.7071 3.99789 14.2092 1.5 11.1279 1.5ZM7.14278 7.07919C7.14278 4.87826 8.92698 3.09406 11.1279 3.09406C13.3288 3.09406 15.1131 4.87826 15.1131 7.07919C15.1131 9.28012 13.3288 11.0643 11.1279 11.0643C8.92698 11.0643 7.14278 9.28012 7.14278 7.07919Z" fill="#EC8D59"/>
</svg>
