<svg width="18" height="19" viewBox="0 0 18 19" fill="none" xmlns="http://www.w3.org/2000/svg">
<path fill-rule="evenodd" clip-rule="evenodd" d="M9.04823 1.5C6.90046 1.5 5.15934 3.29086 5.15934 5.5C5.15934 7.70914 6.90046 9.5 9.04823 9.5C11.196 9.5 12.9371 7.70914 12.9371 5.5C12.9371 3.29086 11.196 1.5 9.04823 1.5ZM6.7149 5.5C6.7149 4.17452 7.75957 3.1 9.04823 3.1C10.3369 3.1 11.3816 4.17452 11.3816 5.5C11.3816 6.82548 10.3369 7.9 9.04823 7.9C7.75957 7.9 6.7149 6.82548 6.7149 5.5Z" fill="#EC8D59"/>
<path d="M3.55556 17.5C3.55556 14.4072 5.99312 11.9 9 11.9C12.0069 11.9 14.4444 14.4072 14.4444 17.5H16C16 13.5236 12.866 10.3 9 10.3C5.13401 10.3 2 13.5236 2 17.5H3.55556Z" fill="#EC8D59"/>
</svg>
